<svg width="30" height="30" viewBox="0 0 30 30" fill="none" xmlns="http://www.w3.org/2000/svg">
<path d="M19.8732 26C15.4889 26 11.5462 24.1881 8.67236 21.3134C5.79854 18.4387 4 14.5076 4 10.122C4 9.2 4.40963 8.37409 5.04968 7.81067L7.55227 5.42896C7.82749 5.16006 8.19872 5 8.60835 5C9.13959 5 9.60683 5.2689 9.88205 5.67866L12.423 9.23201C12.6023 9.48171 12.7047 9.78902 12.7047 10.122C12.7047 10.5765 12.4998 10.9927 12.1862 11.2744L10.1509 13.0671C9.86925 13.3488 9.63243 13.7457 9.63243 14.2195C9.62603 15.3463 10.4645 16.8957 11.783 18.2146C13.1015 19.5335 14.6504 20.3723 15.7769 20.3659C16.2441 20.3659 16.6474 20.129 16.929 19.8473L18.7275 17.8177C19.0091 17.4976 19.4188 17.2991 19.8796 17.2991C20.2124 17.2991 20.5133 17.4015 20.7693 17.5808L24.3215 20.1226C24.7312 20.3979 25 20.8652 25 21.3966C25 21.8064 24.84 22.1777 24.5776 22.453L22.1966 24.9564C21.6205 25.5902 20.7949 26 19.8732 26Z" stroke="white" stroke-miterlimit="10"/>
</svg>
