<svg width="26" height="25" viewBox="0 0 26 25" fill="none" xmlns="http://www.w3.org/2000/svg">
<path d="M19.3789 5C20.2077 5 21.0026 5.3208 21.5886 5.89182C22.1747 6.46285 22.5039 7.23732 22.5039 8.04487V17.7885C22.5039 18.596 22.1747 19.3705 21.5886 19.9415C21.0026 20.5125 20.2077 20.8333 19.3789 20.8333H5.62891C4.8001 20.8333 4.00525 20.5125 3.4192 19.9415C2.83315 19.3705 2.50391 18.596 2.50391 17.7885V8.04487C2.50391 7.23732 2.83315 6.46285 3.4192 5.89182C4.00525 5.3208 4.8001 5 5.62891 5H19.3789ZM21.2539 9.82429L12.8214 14.6596C12.7417 14.7052 12.6526 14.733 12.5605 14.741C12.4684 14.749 12.3757 14.737 12.2889 14.7058L12.1864 14.6596L3.75391 9.82673V17.7885C3.75391 18.273 3.95145 18.7377 4.30308 19.0803C4.65471 19.4229 5.13163 19.6154 5.62891 19.6154H19.3789C19.8762 19.6154 20.3531 19.4229 20.7047 19.0803C21.0564 18.7377 21.2539 18.273 21.2539 17.7885V9.82429ZM19.3789 6.21795H5.62891C5.13163 6.21795 4.65471 6.41043 4.30308 6.75304C3.95145 7.09566 3.75391 7.56034 3.75391 8.04487V8.41269L12.5039 13.4282L21.2539 8.41026V8.04487C21.2539 7.56034 21.0564 7.09566 20.7047 6.75304C20.3531 6.41043 19.8762 6.21795 19.3789 6.21795Z" fill="#393246"/>
</svg>
