<svg width="26" height="25" viewBox="0 0 26 25" fill="none" xmlns="http://www.w3.org/2000/svg">
<path d="M12.9206 23.3333C7.16077 23.3333 2.50391 18.6765 2.50391 12.9167C2.50391 7.15686 7.16077 2.5 12.9206 2.5C18.6804 2.5 23.3372 7.15686 23.3372 12.9167C23.3372 18.6765 18.6804 23.3333 12.9206 23.3333ZM12.9206 3.72549C7.83479 3.72549 3.7294 7.83088 3.7294 12.9167C3.7294 18.0025 7.83479 22.1078 12.9206 22.1078C18.0064 22.1078 22.1117 18.0025 22.1117 12.9167C22.1117 7.83088 18.0064 3.72549 12.9206 3.72549Z" fill="#393246"/>
<path d="M15.1836 17.9957L11.4336 14.2457V7.45996H12.6241V13.7695L16.0169 17.1623L15.1836 17.9957Z" fill="#393246"/>
</svg>
