<svg width="25" height="25" viewBox="0 0 25 25" fill="none" xmlns="http://www.w3.org/2000/svg">
<path d="M17.4152 23.3333C13.0657 23.3333 9.15425 21.5358 6.30324 18.6839C3.45223 15.8321 1.66797 11.9322 1.66797 7.5813C1.66797 6.66667 2.07435 5.84731 2.70932 5.28836L5.19205 2.92556C5.46508 2.65879 5.83337 2.5 6.23975 2.5C6.76677 2.5 7.2303 2.76677 7.50333 3.17327L10.0242 6.69843C10.202 6.94614 10.3035 7.25102 10.3035 7.5813C10.3035 8.03227 10.1004 8.44512 9.78922 8.72459L7.77002 10.503C7.49063 10.7825 7.2557 11.1763 7.2557 11.6463C7.24935 12.7642 8.08116 14.3013 9.38919 15.6098C10.6972 16.9182 12.2339 17.7503 13.3514 17.7439C13.8149 17.7439 14.215 17.5089 14.4943 17.2294L16.2786 15.216C16.558 14.8984 16.9644 14.7015 17.4216 14.7015C17.7517 14.7015 18.0502 14.8031 18.3042 14.9809L21.8282 17.5025C22.2346 17.7757 22.5013 18.2393 22.5013 18.7665C22.5013 19.173 22.3426 19.5414 22.0822 19.8145L19.7201 22.298C19.1487 22.9268 18.3296 23.3333 17.4152 23.3333Z" stroke="#393246" stroke-width="1.5" stroke-miterlimit="10"/>
</svg>
