<svg width="23" height="23" viewBox="0 0 23 23" fill="none" xmlns="http://www.w3.org/2000/svg">
<path d="M16.8732 22C12.4889 22 8.54617 20.1881 5.67236 17.3134C2.79854 14.4387 1 10.5076 1 6.12195C1 5.2 1.40963 4.37409 2.04968 3.81067L4.55227 1.42896C4.82749 1.16006 5.19872 1 5.60835 1C6.13959 1 6.60683 1.2689 6.88205 1.67866L9.42304 5.23201C9.60226 5.48171 9.70466 5.78902 9.70466 6.12195C9.70466 6.57652 9.49985 6.99268 9.18622 7.27439L7.15087 9.06707C6.86925 9.34878 6.63243 9.74573 6.63243 10.2195C6.62603 11.3463 7.46449 12.8957 8.78299 14.2146C10.1015 15.5335 11.6504 16.3723 12.7769 16.3659C13.2441 16.3659 13.6474 16.129 13.929 15.8473L15.7275 13.8177C16.0091 13.4976 16.4188 13.2991 16.8796 13.2991C17.2124 13.2991 17.5133 13.4015 17.7693 13.5808L21.3215 16.1226C21.7312 16.3979 22 16.8652 22 17.3966C22 17.8064 21.84 18.1777 21.5776 18.453L19.1966 20.9564C18.6205 21.5902 17.7949 22 16.8732 22Z" stroke="white" stroke-miterlimit="10"/>
</svg>
