<svg width="21" height="21" viewBox="0 0 21 21" fill="none" xmlns="http://www.w3.org/2000/svg">
<path d="M16.7124 21C17.5583 21 18.3096 20.6505 18.9661 19.9516C19.6606 19.2124 20.0078 18.3152 20.0078 17.2601C20.0078 16.205 19.6606 15.3078 18.9661 14.5686L8.07599 2.27016C7.52044 1.66532 6.87966 1.27554 6.15365 1.10081C5.42764 0.926078 4.69216 0.973121 3.94721 1.24194C3.20226 1.51076 2.51413 1.97446 1.88281 2.63307C1.68079 2.86156 1.49455 3.11358 1.3241 3.38912C1.15364 3.66465 1.01476 3.95363 0.907433 4.25605C0.80011 4.55847 0.718039 4.87769 0.661221 5.21371C0.604403 5.54973 0.575994 5.88576 0.575994 6.22178C0.601246 7.64651 1.05579 8.83602 1.93963 9.79033L10.1783 19.1048C10.2919 19.2393 10.4308 19.3098 10.5949 19.3165C10.7591 19.3233 10.9011 19.2661 11.0211 19.1452C11.141 19.0242 11.2042 18.873 11.2105 18.6915C11.2168 18.5101 11.1631 18.3522 11.0495 18.2177L2.81084 8.90323C2.14165 8.17742 1.80074 7.27688 1.78811 6.20162C1.77549 5.12635 2.09746 4.24597 2.75402 3.56049C3.15806 3.11694 3.6063 2.78092 4.09872 2.55242C4.59115 2.32393 5.12145 2.25 5.68963 2.33065C6.25781 2.41129 6.76286 2.68683 7.20478 3.15726L18.0949 15.4556C18.5621 15.953 18.7957 16.5511 18.7957 17.25C18.7957 17.9489 18.5621 18.547 18.0949 19.0444C17.8803 19.2729 17.6467 19.4442 17.3942 19.5585C17.1417 19.6727 16.8765 19.7164 16.5987 19.6895C16.0432 19.6626 15.5255 19.3871 15.0457 18.8629L6.39039 9.06452C6.32726 8.99731 6.26728 8.92675 6.21046 8.85283C6.15365 8.7789 6.09367 8.69153 6.03054 8.59073C5.96741 8.48992 5.9169 8.3824 5.87902 8.26815C5.84115 8.1539 5.81589 8.03965 5.80327 7.92541C5.79064 7.81116 5.80958 7.69355 5.86008 7.57258C5.91059 7.45162 5.98635 7.33737 6.08736 7.22984C6.32726 6.96102 6.56084 6.84006 6.78812 6.86694C7.02801 6.89382 7.29948 7.06183 7.60251 7.37097L14.1177 14.75C14.1934 14.8306 14.2818 14.8878 14.3828 14.9214C14.4838 14.955 14.588 14.9583 14.6953 14.9315C14.8026 14.9046 14.8942 14.8508 14.9699 14.7702C15.0962 14.6492 15.1593 14.5013 15.1593 14.3266C15.1593 14.1519 15.1025 13.9973 14.9889 13.8629L8.47372 6.46371C7.95604 5.92608 7.43205 5.63038 6.90175 5.57662C6.29569 5.52285 5.74014 5.76479 5.23508 6.30242C4.75529 6.79973 4.5438 7.38441 4.60062 8.05645C4.65743 8.7285 4.96362 9.36022 5.51918 9.95162L14.1745 19.7702C14.8815 20.5229 15.6707 20.9261 16.5419 20.9798C16.5672 20.9798 16.5956 20.9832 16.6271 20.9899C16.6587 20.9966 16.6871 21 16.7124 21Z" fill="#393246"/>
</svg>
